<svg xmlns="http://www.w3.org/2000/svg" xmlns:xlink="http://www.w3.org/1999/xlink" width="258" height="258" version="1.1" viewBox="0 0 258 258"><title>pebbles-thick-sq-pad</title><desc>Created with Sketch.</desc><defs><filter id="filter-1" width="100%" height="100%" x="0%" y="0%" filterUnits="objectBoundingBox"><feGaussianBlur in="SourceGraphic" stdDeviation="0"/></filter></defs><g id="Spread" fill="none" fill-rule="evenodd" stroke="none" stroke-width="1"><g id="pebbles-thick-sq-pad" transform="translate(1.000000, 1.000000)"><rect id="Rectangle" width="232" height="232" x="12" y="12" stroke="#000" stroke-width="8" filter="url(#filter-1)"/><g id="pebbles-thick" fill="#000"><g transform="translate(39.000000, 60.000000) translate(0.000000, 0.594872)"><path id="peb-bot" d="M131.272355,88.5682938 C159.356443,93.5779585 178.461538,103.450402 178.461538,114.810256 C178.461538,131.237187 138.511562,144.553846 89.2307692,144.553846 C39.9499762,144.553846 0,131.237187 0,114.810256 C0,103.450288 19.1054774,93.577761 47.1900266,88.5681435 C59.3946348,91.6281375 73.8007192,93.3948718 89.2307692,93.3948718 C104.639231,93.3948718 119.026589,91.6330778 131.220081,88.5820967 Z"/><path id="peb-med" d="M120.430845,39.8640178 C144.220614,43.7235929 160.615385,51.8594933 160.615385,61.2717949 C160.615385,74.4133397 128.655404,85.0666667 89.2307692,85.0666667 C49.8061348,85.0666667 17.8461538,74.4133397 17.8461538,61.2717949 C17.8461538,51.8594933 34.2409244,43.7235929 58.0306936,39.8640178 C67.1694073,42.1272999 77.8369009,43.425641 89.2307692,43.425641 C100.397797,43.425641 110.867085,42.1784827 119.883052,39.9996027 Z"/><g id="peb-top" transform="translate(35.692308, 0.000000)"><ellipse id="peb-sm" cx="53.538" cy="17.846" rx="53.538" ry="17.846"/></g></g></g></g></g></svg>