<svg xmlns="http://www.w3.org/2000/svg" xmlns:xlink="http://www.w3.org/1999/xlink" width="258" height="258" version="1.1" viewBox="0 0 258 258"><title>pebbles-circ-pad</title><desc>Created with Sketch.</desc><g id="Spread" fill="none" fill-rule="evenodd" stroke="none" stroke-width="1"><g id="pebbles-circ-pad" transform="translate(1.000000, 1.000000)"><g id="pebbles" fill="#000"><g transform="translate(45.000000, 52.000000) translate(0.000000, 0.559211)"><path id="peb-bot" d="M116.949516,82.3468803 C146.169056,86.6889169 166.555851,96.5089232 166.555851,107.927632 C166.555851,123.369804 129.271054,135.888158 83.2779255,135.888158 C37.2847973,135.888158 0,123.369804 0,107.927632 C0,96.5089232 20.3867954,86.6889169 49.606335,82.3468803 C59.6434099,84.3974838 71.1060715,85.5592105 83.2779255,85.5592105 C95.1441526,85.5592105 106.336355,84.4550917 116.190987,82.5007255 Z"/><path id="peb-med" d="M104.351799,36.372416 C130.81817,39.3330904 149.900266,47.7176925 149.900266,57.5986842 C149.900266,69.952422 120.072428,79.9671053 83.2779255,79.9671053 C46.4834229,79.9671053 16.6555851,69.952422 16.6555851,57.5986842 C16.6555851,47.7176925 35.7376812,39.3330904 62.2040525,36.372416 C68.6850516,37.4379875 75.8055753,38.0263158 83.2779255,38.0263158 C90.489648,38.0263158 97.3736586,37.4783123 103.671864,36.4831079 Z"/><g id="peb-top" transform="translate(33.311170, 0.000000)"><ellipse id="peb-sm" cx="49.967" cy="16.776" rx="49.967" ry="16.776"/></g></g></g><circle id="Oval" cx="128" cy="128" r="116.25" stroke="#000" stroke-width="7.5"/></g></g></svg>