<svg xmlns="http://www.w3.org/2000/svg" xmlns:xlink="http://www.w3.org/1999/xlink" width="256" height="210" version="1.1" viewBox="0 0 256 210"><title>pebbles</title><desc>Created with Sketch.</desc><g id="Spread" fill="none" fill-rule="evenodd" stroke="none" stroke-width="1"><g id="pebbles" fill="#000"><g transform="translate(0.000000, 0.854642)"><path id="peb-bot" d="M179.728006,125.851113 C224.630933,132.487209 255.960006,147.494935 255.960006,164.945882 C255.960006,188.546166 198.661407,207.677976 127.980003,207.677976 C57.2985991,207.677976 0,188.546166 0,164.945882 C0,147.494935 31.3290737,132.487209 76.2320007,125.851113 C91.6569565,128.984542 109.273482,130.760207 127.980003,130.760207 C146.215805,130.760207 163.415778,129.072781 178.560198,126.085922 Z"/><path id="peb-med" d="M160.36937,55.5883719 C201.040632,60.1135109 230.364006,72.9274096 230.364006,88.0281132 C230.364006,106.90834 184.525126,122.213788 127.980003,122.213788 C71.4348799,122.213788 25.5960006,106.90834 25.5960006,88.0281132 C25.5960006,72.9274096 54.9193745,60.1135109 95.590636,55.5883719 C105.55186,57.2163341 116.49554,58.1156476 127.980003,58.1156476 C139.062847,58.1156476 149.64207,57.2781334 159.321037,55.7571617 Z"/><g id="peb-top" transform="translate(51.192001, 0.000000)"><ellipse id="peb-sm" cx="76.788" cy="25.639" rx="76.788" ry="25.639"/></g></g></g></g></svg>