<svg xmlns="http://www.w3.org/2000/svg" xmlns:xlink="http://www.w3.org/1999/xlink" width="256" height="256" version="1.1" viewBox="0 0 256 256"><title>pebbles-sq</title><desc>Created with Sketch.</desc><defs><filter id="filter-1" width="100%" height="100%" x="0%" y="0%" filterUnits="objectBoundingBox"><feGaussianBlur in="SourceGraphic" stdDeviation="0"/></filter></defs><g id="Spread" fill="none" fill-rule="evenodd" stroke="none" stroke-width="1"><g id="pebbles-sq"><g id="pebbles" fill="#000"><g transform="translate(33.149171, 55.466667) translate(0.000000, 0.635897)"><path id="peb-bot" d="M133.412967,93.6397258 C166.744434,98.5773407 190,109.743836 190,122.728205 C190,140.288028 147.467051,154.523077 95,154.523077 C42.5329488,154.523077 0,140.288028 0,122.728205 C0,109.743836 23.2555659,98.5773407 56.587033,93.6397258 C68.0369258,95.9710866 81.1138986,97.2923077 95,97.2923077 C108.536499,97.2923077 121.304099,96.0367764 132.545854,93.8143996 Z"/><path id="peb-med" d="M119.043946,41.3607373 C149.233738,44.7277925 171,54.2618867 171,65.4974359 C171,79.5452941 136.973641,90.9333333 95,90.9333333 C53.026359,90.9333333 19,79.5452941 19,65.4974359 C19,54.2618867 40.7662623,44.7277925 70.9560542,41.3607373 C78.3510666,42.5718536 86.4748096,43.2410256 95,43.2410256 C103.226834,43.2410256 111.079827,42.6178721 118.264558,41.4861911 Z"/><g id="peb-top" transform="translate(38.000000, 0.000000)"><ellipse id="peb-sm" cx="57" cy="19.077" rx="57" ry="19.077"/></g></g></g><rect id="Rectangle" width="248" height="248" x="4" y="4" stroke="#000" stroke-width="8" filter="url(#filter-1)"/></g></g></svg>